<svg width="304" height="26" viewBox="0 0 304 26" fill="none" xmlns="http://www.w3.org/2000/svg">
<g clip-path="url(#clip0_202_41)">
<path d="M23.1765 9.27965C23.1765 11.6561 22.8349 13.8346 22.1231 15.8716C21.4113 17.9086 20.4147 19.6061 19.105 21.0207C17.7668 22.4918 16.1723 23.5952 14.3216 24.3874C12.4709 25.1795 10.364 25.5756 7.9438 25.5756C6.37782 25.5756 4.89726 25.4342 3.50211 25.1513C2.10696 24.8683 0.939589 24.5005 -0.0284729 24.0762L0.797227 20.5114H1.05348C1.79376 21.2187 2.81877 21.7845 4.18545 22.2372C5.55212 22.6899 7.00421 22.8879 8.54173 22.8879C9.99382 22.8879 11.332 22.6616 12.5563 22.1806C13.7807 21.6997 14.8911 21.0207 15.8307 20.1436C16.7418 19.2949 17.5105 18.2764 18.1085 17.0881C18.7064 15.8999 19.1619 14.6551 19.4182 13.2688H5.72296L6.34935 10.5245H19.8168C19.8168 10.5245 19.8168 10.2699 19.8168 10.1284C19.8168 10.0152 19.8168 9.84548 19.8168 9.64744C19.8168 8.48749 19.646 7.46899 19.3043 6.62024C18.9626 5.77149 18.4501 5.00762 17.7953 4.44178C17.1404 3.87595 16.3432 3.42329 15.4321 3.14037C14.5209 2.85745 13.4959 2.716 12.3855 2.716C10.8195 2.716 9.33895 2.91404 7.9438 3.33841C6.54866 3.76279 5.23892 4.32862 4.10003 5.0642H3.8153L4.641 1.52775C5.69448 1.13166 6.94727 0.763874 8.39936 0.452666C9.85146 0.141458 11.3605 0 12.898 0C14.5494 0 16.03 0.198041 17.2828 0.622416C18.5355 1.04679 19.6175 1.64091 20.4432 2.3765C21.3543 3.16866 22.0377 4.13058 22.4932 5.26224C22.9488 6.39391 23.1765 7.72361 23.1765 9.27965Z" fill="#2A194C"/>
<path d="M39.8899 25.123H36.7294L40.4593 9.08161H33.5405C33.2843 10.1001 33.0565 11.0337 32.8572 11.8542C32.6579 12.7029 32.4586 13.4668 32.2593 14.1741C31.8891 15.6736 31.519 16.9184 31.1488 17.9652C30.7787 19.012 30.4655 19.8041 30.1523 20.4266C29.7822 21.1621 29.4405 21.7563 29.1273 22.2372C28.8141 22.7182 28.5009 23.086 28.1877 23.3972C27.4759 24.1328 26.7926 24.6137 26.1377 24.84C25.4828 25.0664 24.771 25.1513 24.0592 25.1513C23.8599 25.1513 23.5752 25.1513 23.205 25.1513C22.8349 25.1513 22.5786 25.1513 22.4648 25.1513L23.0911 22.4353H23.262C23.262 22.4353 23.4613 22.4353 23.6321 22.4353C23.803 22.4353 23.9453 22.4353 24.0592 22.4353C24.3155 22.4353 24.6002 22.3787 24.9134 22.2938C25.2266 22.2089 25.5113 22.0675 25.7391 21.8977C26.3939 21.3602 27.0488 20.4266 27.6752 19.0686C28.3016 17.7106 28.9565 15.8433 29.6113 13.3819C29.8106 12.5615 30.0954 11.5147 30.4086 10.2133C30.7218 8.91186 31.0065 7.69532 31.2627 6.62024H44.1607L39.8614 25.123H39.8899Z" fill="#2A194C"/>
<path d="M62.5254 18.1915C62.5254 19.3232 62.2407 20.37 61.6997 21.3319C61.1587 22.2938 60.4185 23.0577 59.5358 23.6235C58.7101 24.161 57.8844 24.5288 56.9733 24.7552C56.0622 24.9815 54.9802 25.0947 53.6705 25.0947H46.0684L50.3677 6.59195H53.5281L51.8198 13.8629H55.9198C57.315 13.8629 58.3969 13.9478 59.1372 14.0892C59.8775 14.2307 60.5893 14.5985 61.2442 15.1643C61.6712 15.5321 61.9844 15.9848 62.1837 16.494C62.3831 17.0033 62.4969 17.5691 62.4969 18.1915H62.5254ZM59.2226 18.6442C59.2226 18.2764 59.1657 17.9369 59.0233 17.6257C58.8809 17.3145 58.6816 17.0598 58.3684 16.8618C57.9414 16.5789 57.4573 16.4091 56.8879 16.3526C56.3184 16.296 55.4643 16.2677 54.2969 16.2677H51.2503L49.7413 22.7748H53.0156C54.1545 22.7748 55.0087 22.7182 55.6351 22.6333C56.2615 22.5201 56.8309 22.3504 57.315 22.0675C57.9129 21.728 58.3684 21.2753 58.7101 20.6812C59.0518 20.0871 59.1941 19.4081 59.1941 18.6725L59.2226 18.6442Z" fill="#2A194C"/>
<path d="M82.6839 25.123H78.8686L72.6332 16.5789H70.8109L68.8178 25.123H65.6574L69.9567 6.62024H73.1172L71.238 14.6551C72.1207 14.6551 72.8894 14.4853 73.6297 14.1741C74.37 13.8629 75.0818 13.2122 75.7936 12.2503C76.0214 11.9674 76.2492 11.6279 76.4769 11.2884C76.7047 10.9489 76.9325 10.6094 77.1318 10.2982C77.8721 9.22307 78.7262 8.31774 79.6943 7.63874C80.6624 6.95974 82.1145 6.62024 84.0221 6.62024H85.4457L84.8478 9.22307H83.5381C82.6839 9.22307 81.9436 9.42111 81.3172 9.84548C80.6908 10.2699 80.1214 10.9206 79.495 11.8259C78.8117 12.8444 78.1283 13.6366 77.445 14.2024C76.7617 14.7682 76.0783 15.1926 75.395 15.4755L82.5985 25.123H82.6839Z" fill="#2A194C"/>
<path d="M97.6035 23.1425C97.2903 23.3123 96.8916 23.5669 96.3791 23.9064C95.8666 24.2459 95.3257 24.5005 94.8132 24.7552C94.2437 25.0098 93.6173 25.2361 92.9055 25.4059C92.1937 25.5756 91.3965 25.6605 90.4854 25.6605C89.0048 25.6605 87.809 25.2361 86.8694 24.3874C85.9298 23.5386 85.4742 22.407 85.4742 21.0207C85.4742 19.5495 85.7874 18.3047 86.4423 17.2862C87.0971 16.2677 88.0652 15.4472 89.3465 14.7965C90.5992 14.1741 92.1083 13.7214 93.902 13.4385C95.6673 13.1556 97.6889 12.9859 99.9667 12.9293C100.024 12.6181 100.081 12.3634 100.138 12.1371C100.194 11.9108 100.194 11.6844 100.194 11.4298C100.194 10.8923 100.081 10.4679 99.8813 10.1284C99.682 9.7889 99.3687 9.53428 98.9701 9.33624C98.5715 9.13819 98.116 8.99674 97.6035 8.94015C97.091 8.88357 96.5215 8.82699 95.8951 8.82699C94.9555 8.82699 93.8736 8.96844 92.6493 9.27965C91.4249 9.59086 90.4569 9.87378 89.6881 10.185H89.5173L90.1437 7.07291C90.7701 6.90316 91.7097 6.73341 92.934 6.50707C94.1583 6.28074 95.3257 6.19587 96.4646 6.19587C98.7708 6.19587 100.508 6.56366 101.675 7.27095C102.842 7.97824 103.412 9.13819 103.412 10.6942C103.412 11.0054 103.412 11.3166 103.326 11.6561C103.241 11.9956 103.213 12.3069 103.156 12.6181L100.251 25.1795H97.1479L97.6035 23.1991V23.1425ZM99.4257 15.3624C97.7173 15.4189 96.1798 15.5604 94.8701 15.7584C93.5319 15.9565 92.45 16.2394 91.5673 16.6072C90.6562 16.975 89.9729 17.4559 89.5173 18.0783C89.0617 18.7008 88.8055 19.4929 88.8055 20.3983C88.8055 21.1904 89.0902 21.8128 89.6312 22.2089C90.1722 22.6333 91.0263 22.8313 92.1652 22.8313C93.1902 22.8313 94.2152 22.605 95.2687 22.1523C96.3222 21.6997 97.2903 21.1621 98.2014 20.5397L99.4257 15.3341V15.3624Z" fill="#2A194C"/>
<path d="M122.517 17.4842L128.211 12.9576L122.517 8.4309V11.8259H107.711V14.0892H122.517V17.4842Z" fill="#2A194C"/>
<path d="M128.211 19.0403H113.406V15.6453L107.711 20.1719L113.406 24.6986V21.3036H128.211V19.0403Z" fill="#907AB6"/>
<path d="M134.76 3.02721C136.184 2.80087 138.063 2.57454 140.454 2.57454C143.387 2.57454 145.551 3.25354 146.918 4.47008C148.17 5.54516 148.939 7.21437 148.939 9.25136C148.939 11.2884 148.313 12.9576 147.174 14.1458C145.608 15.815 143.045 16.6638 140.141 16.6638C139.259 16.6638 138.433 16.6355 137.75 16.4657V25.6322H134.788V3.02721H134.76ZM137.721 14.0609C138.376 14.2307 139.202 14.2873 140.17 14.2873C143.757 14.2873 145.95 12.5615 145.95 9.39282C145.95 6.22416 143.786 4.92274 140.511 4.92274C139.202 4.92274 138.234 5.03591 137.721 5.14908V14.0326V14.0609Z" fill="#907AB6"/>
<path d="M161.097 25.6322L160.869 23.5669H160.755C159.844 24.8683 158.05 26 155.716 26C152.356 26 150.676 23.6518 150.676 21.2753C150.676 17.3145 154.235 15.136 160.613 15.1643V14.8248C160.613 13.4668 160.243 11.0337 156.855 11.0337C155.317 11.0337 153.723 11.5147 152.555 12.2503L151.872 10.2699C153.239 9.39282 155.232 8.79869 157.31 8.79869C162.35 8.79869 163.603 12.222 163.603 15.5038V21.6431C163.603 23.0577 163.659 24.4723 163.887 25.5756H161.154L161.097 25.6322ZM160.641 17.2579C157.367 17.2013 153.637 17.7671 153.637 20.9641C153.637 22.8879 154.947 23.8215 156.484 23.8215C158.648 23.8215 160.015 22.4635 160.471 21.0773C160.584 20.7661 160.641 20.4266 160.641 20.1153V17.2579Z" fill="#907AB6"/>
<path d="M180.202 25.0098C179.405 25.4059 177.668 25.9717 175.447 25.9717C170.464 25.9717 167.219 22.605 167.219 17.5974C167.219 12.5898 170.692 8.88357 176.102 8.88357C177.867 8.88357 179.462 9.33624 180.259 9.73232L179.576 12.0522C178.864 11.6562 177.725 11.2601 176.102 11.2601C172.315 11.2601 170.265 14.0326 170.265 17.4559C170.265 21.247 172.714 23.5952 176.016 23.5952C177.725 23.5952 178.864 23.1425 179.718 22.7748L180.23 25.0098H180.202Z" fill="#907AB6"/>
<path d="M197.314 9.19478V25.6039H194.296V11.5713H186.608V25.6322H183.647V9.19478H197.314Z" fill="#907AB6"/>
<path d="M204.973 9.19478V16.1262C204.973 18.7291 204.944 20.37 204.802 22.7182H204.916C205.913 20.7378 206.482 19.6061 207.592 17.6823L212.746 9.19478H216.276V25.6039H213.401V18.6442C213.401 15.9565 213.458 14.5702 213.6 11.9108H213.486C212.433 14.0044 211.721 15.3341 210.753 17.0033C209.187 19.5495 207.365 22.6899 205.599 25.5756H202.154V9.19478H205.001H204.973Z" fill="#907AB6"/>
<path d="M232.933 25.0098C232.136 25.4059 230.399 25.9717 228.178 25.9717C223.195 25.9717 219.949 22.605 219.949 17.5974C219.949 12.5898 223.423 8.88357 228.833 8.88357C230.598 8.88357 232.193 9.33624 232.99 9.73232L232.306 12.0522C231.595 11.6562 230.456 11.2601 228.833 11.2601C225.046 11.2601 222.996 14.0326 222.996 17.4559C222.996 21.247 225.445 23.5952 228.747 23.5952C230.456 23.5952 231.595 23.1425 232.449 22.7748L232.961 25.0098H232.933Z" fill="#907AB6"/>
<path d="M245.717 25.6322L245.489 23.5669H245.375C244.464 24.8683 242.67 26 240.336 26C236.976 26 235.296 23.6518 235.296 21.2753C235.296 17.3145 238.855 15.136 245.233 15.1643V14.8248C245.233 13.4668 244.863 11.0337 241.475 11.0337C239.937 11.0337 238.343 11.5147 237.175 12.2503L236.492 10.2699C237.859 9.39282 239.852 8.79869 241.93 8.79869C246.97 8.79869 248.223 12.222 248.223 15.5038V21.6431C248.223 23.0577 248.279 24.4723 248.507 25.5756H245.774L245.717 25.6322ZM245.261 17.2579C241.987 17.2013 238.257 17.7671 238.257 20.9641C238.257 22.8879 239.567 23.8215 241.104 23.8215C243.268 23.8215 244.635 22.4635 245.091 21.0773C245.204 20.7661 245.261 20.4266 245.261 20.1153V17.2579Z" fill="#907AB6"/>
<path d="M255.939 9.19478V15.815H263.797V9.19478H266.758V25.6039H263.797V18.1632H255.939V25.6039H252.977V9.19478H255.939Z" fill="#907AB6"/>
<path d="M274.446 9.19478V16.1262C274.446 18.7291 274.417 20.37 274.275 22.7182H274.389C275.385 20.7378 275.955 19.6061 277.065 17.6823L282.219 9.19478H285.749V25.6039H282.873V18.6442C282.873 15.9565 282.93 14.5702 283.073 11.9108H282.959C281.905 14.0044 281.194 15.3341 280.225 17.0033C278.66 19.5495 276.837 22.6899 275.072 25.5756H271.627V9.19478H274.474H274.446Z" fill="#907AB6"/>
<path d="M292.269 17.9652C292.326 22.0109 294.946 23.6518 297.935 23.6518C300.099 23.6518 301.381 23.284 302.519 22.8031L303.032 24.9532C301.978 25.4342 300.156 25.9717 297.537 25.9717C292.44 25.9717 289.422 22.6333 289.422 17.6823C289.422 12.7312 292.355 8.82699 297.167 8.82699C302.576 8.82699 304 13.5517 304 16.5506C304 17.173 303.943 17.6257 303.886 17.9369H292.269V17.9652ZM301.067 15.815C301.096 13.9195 300.27 10.9772 296.91 10.9772C293.864 10.9772 292.526 13.7497 292.298 15.815H301.067Z" fill="#907AB6"/>
</g>
<defs>
<clipPath id="clip0_202_41">
<rect width="304" height="26" fill="white"/>
</clipPath>
</defs>
</svg>
