<svg width="29" height="31" viewBox="0 0 29 31" fill="none" xmlns="http://www.w3.org/2000/svg">
<path d="M19.7865 2.58334H9.20872C8.93805 2.58334 7.51826 2.6673 6.18426 4.32839C4.8708 5.96234 4.83334 7.57176 4.83334 7.75001V21.9583C4.83334 22.6435 5.08796 23.3006 5.54117 23.785C5.99438 24.2695 6.60907 24.5417 7.25001 24.5417H8.45834L6.04168 28.4167H8.88489L9.69084 27.125H19.3575L20.1756 28.4167H22.9583L20.5417 24.5417H21.75C22.391 24.5417 23.0056 24.2695 23.4589 23.785C23.9121 23.3006 24.1667 22.6435 24.1667 21.9583V7.75001C24.1679 7.50718 24.128 5.89776 22.8025 4.30772C21.4056 2.63114 19.9484 2.58334 19.7865 2.58334ZM12.0833 5.16668H16.9167V7.75001H12.0833V5.16668ZM9.06251 21.9583C8.58165 21.9582 8.12054 21.7538 7.78063 21.3902C7.44072 21.0266 7.24985 20.5336 7.25001 20.0196C7.25017 19.5055 7.44135 19.0126 7.78148 18.6493C8.12162 18.2859 8.58285 18.0819 9.06372 18.0821C9.54458 18.0822 10.0057 18.2866 10.3456 18.6502C10.6855 19.0138 10.8764 19.5068 10.8762 20.0208C10.8761 20.5349 10.6849 21.0278 10.3447 21.3911C10.0046 21.7545 9.54338 21.9585 9.06251 21.9583ZM19.9375 21.9583C19.4566 21.9582 18.9955 21.7538 18.6556 21.3902C18.3157 21.0266 18.1249 20.5336 18.125 20.0196C18.1252 19.5055 18.3163 19.0126 18.6565 18.6493C18.9966 18.2859 19.4579 18.0819 19.9387 18.0821C20.4196 18.0822 20.8807 18.2866 21.2206 18.6502C21.5605 19.0138 21.7514 19.5068 21.7512 20.0208C21.7511 20.5349 21.5599 21.0278 21.2197 21.3911C20.8796 21.7545 20.4184 21.9585 19.9375 21.9583ZM21.75 15.5H7.25001V10.3333H21.75V15.5Z" fill="#0D0B68"/>
</svg>
